Coordinates
version=1
nRows=24
nColumns=38
inDegrees=no

Units are S.I. units (second, meters, Newtons, ...)
If the header above contains a line with 'inDegrees', this indicates whether rotational values are in degrees (yes) or radians (no).

endheader
time	pelvis_tilt	pelvis_list	pelvis_rotation	pelvis_tx	pelvis_ty	pelvis_tz	hip_flexion_r	hip_adduction_r	hip_rotation_r	knee_angle_r	ankle_angle_r	subtalar_angle_r	mtp_angle_r	hip_flexion_l	hip_adduction_l	hip_rotation_l	knee_angle_l	ankle_angle_l	subtalar_angle_l	mtp_angle_l	lumbar_extension	lumbar_bending	lumbar_rotation	arm_flex_r	arm_add_r	arm_rot_r	elbow_flex_r	pro_sup_r	wrist_flex_r	wrist_dev_r	arm_flex_l	arm_add_l	arm_rot_l	elbow_flex_l	pro_sup_l	wrist_flex_l	wrist_dev_l
0	2.9249	1.41276	-1.31033	0.747182	-0.304515	0.961146	0.266058	-0.0655313	-0.272874	0.379566	-0.00474564	0	0	-0.274831	0.0439785	-0.275248	0.0724422	0.119759	0	0	-0.289155	0.0133755	0.0773353	0.127856	-0.297789	0.847761	0.378334	0.755402	0	0	0.205155	-0.17815	0.179111	0.21733	1.5708	0	0
0.01	2.92305	1.418	-1.31108	0.748159	-0.296946	0.959729	0.263048	-0.0542837	-0.279889	0.3172	-0.00388286	0	0	-0.283933	0.0455888	-0.272583	0.0623214	0.123357	0	0	-0.285548	0.0101498	0.0794029	0.132215	-0.295747	0.852958	0.375593	0.753065	0	0	0.206743	-0.181731	0.186913	0.221518	1.5708	0	0
0.02	2.91425	1.42279	-1.30553	0.749307	-0.289097	0.958265	0.258061	-0.03959	-0.27969	0.253559	-0.00364639	0	0	-0.292855	0.0456765	-0.273052	0.0537881	0.127634	0	0	-0.28205	0.00788816	0.0832885	0.135556	-0.294602	0.859055	0.373865	0.748788	0	0	0.209265	-0.184199	0.191225	0.222625	1.5708	0	0
0.03	2.9055	1.42802	-1.29983	0.750434	-0.281127	0.956693	0.251791	-0.0244973	-0.27513	0.188839	-0.00648335	0	0	-0.300999	0.0458383	-0.272963	0.0466849	0.131176	0	0	-0.278048	0.00569227	0.0870619	0.13856	-0.294158	0.867469	0.372898	0.74262	0	0	0.211254	-0.186603	0.195996	0.2242	1.5708	0	0
0.04	2.83571	1.42971	-1.23751	0.751931	-0.27435	0.956017	0.229851	0.00527127	-0.263948	0.0929334	-0.0364419	0	0	-0.306253	0.0364724	-0.280478	0.0450092	0.136854	0	0	-0.279227	0.0130869	0.0967209	0.145738	-0.296364	0.875326	0.37222	0.733535	0	0	0.216709	-0.185387	0.197435	0.224442	1.5708	0	0
0.05	2.83226	1.43561	-1.23599	0.752941	-0.266041	0.95421	0.217837	0.019507	-0.240525	0.0242477	-0.0490567	0	0	-0.313424	0.0376114	-0.279765	0.039735	0.142057	0	0	-0.274137	0.0101934	0.0994422	0.147823	-0.295994	0.883047	0.371176	0.721854	0	0	0.217789	-0.187587	0.201986	0.226252	1.5708	0	0
0.06	2.88442	1.4444	-1.28587	0.753869	-0.256447	0.951504	0.223054	0.0192397	-0.229479	0	-0.0347901	0	0	-0.322431	0.0457797	-0.27288	0.0320058	0.146944	0	0	-0.26433	-0.000768272	0.0967845	0.145414	-0.293429	0.89281	0.370903	0.711629	0	0	0.214848	-0.193695	0.211733	0.230689	1.5708	0	0
0.07	2.87214	1.44741	-1.27893	0.75492	-0.248537	0.949654	0.238213	0.0281493	-0.240217	0	-0.030611	0	0	-0.328837	0.0491335	-0.267142	0.0310319	0.148879	0	0	-0.262432	-0.00103475	0.101233	0.147626	-0.294335	0.899112	0.371526	0.707414	0	0	0.215265	-0.19454	0.21574	0.232479	1.5708	0	0
0.08	2.86325	1.45039	-1.27172	0.755592	-0.240105	0.94804	0.24881	0.0345424	-0.255165	0	-0.0247349	0	0	-0.337026	0.0483927	-0.267271	0.0291182	0.154179	0	0	-0.26029	-0.000684113	0.10314	0.148471	-0.295383	0.900915	0.373026	0.70563	0	0	0.215354	-0.194856	0.217542	0.233689	1.5708	0	0
0.09	2.85836	1.45259	-1.26612	0.755913	-0.23143	0.946573	0.255762	0.0398323	-0.268667	0	-0.0178641	0	0	-0.345582	0.0473419	-0.266616	0.0283552	0.159645	0	0	-0.259074	0.000255486	0.102867	0.149313	-0.296767	0.903149	0.374377	0.703313	0	0	0.215201	-0.19492	0.220094	0.235036	1.5708	0	0
0.1	2.85908	1.45447	-1.26371	0.755897	-0.222461	0.945223	0.259302	0.0436064	-0.280799	0	-0.0119991	0	0	-0.354056	0.046198	-0.264537	0.0290672	0.163999	0	0	-0.258143	0.00144398	0.100176	0.149926	-0.298404	0.906722	0.375534	0.700688	0	0	0.214787	-0.194752	0.223767	0.235836	1.5708	0	0
0.11	2.85802	1.45559	-1.25772	0.755703	-0.213403	0.944031	0.259645	0.0471459	-0.292465	0	-0.0106362	0	0	-0.362177	0.0438776	-0.262734	0.0314083	0.168646	0	0	-0.258116	0.00375764	0.095746	0.151166	-0.299994	0.911848	0.375795	0.697794	0	0	0.214265	-0.194463	0.227784	0.236903	1.5708	0	0
0.12	2.85619	1.4566	-1.24916	0.755348	-0.204074	0.942936	0.257334	0.0501512	-0.303204	0	-0.013573	0	0	-0.369511	0.0406908	-0.260715	0.0351011	0.173249	0	0	-0.258006	0.00680292	0.0896976	0.152198	-0.301838	0.916462	0.376277	0.695304	0	0	0.213429	-0.193985	0.231087	0.238065	1.5708	0	0
0.13	2.80105	1.45346	-1.19009	0.754588	-0.195757	0.942917	0.250831	0.0606197	-0.316491	0	-0.0327694	0	0	-0.37594	0.0311446	-0.263156	0.0427624	0.176669	0	0	-0.262841	0.01904	0.0865309	0.156605	-0.307445	0.9219	0.377461	0.693188	0	0	0.213191	-0.189605	0.232626	0.239638	1.5708	0	0
0.14	2.80208	1.45744	-1.17889	0.753809	-0.184924	0.941726	0.238499	0.0624198	-0.321531	0	-0.0379372	0	0	-0.381663	0.0226624	-0.271187	0.0469809	0.186545	0	0	-0.256752	0.0219898	0.07586	0.153704	-0.309934	0.926376	0.379628	0.691817	0	0	0.209313	-0.18915	0.233299	0.240671	1.5708	0	0
0.15	2.79639	1.4569	-1.164	0.753019	-0.174806	0.940836	0.242506	0.0596867	-0.33336	0.0186012	-0.0356968	0	0	-0.387627	0.0164411	-0.272383	0.0566317	0.192492	0	0	-0.2556	0.0277335	0.0659759	0.152584	-0.313303	0.931497	0.382233	0.691176	0	0	0.204588	-0.188321	0.232923	0.242945	1.5708	0	0
0.16	2.79761	1.45674	-1.15489	0.752196	-0.164494	0.939995	0.247089	0.0546664	-0.349817	0.0550643	-0.0234335	0	0	-0.391866	0.00997401	-0.2735	0.0697411	0.197509	0	0	-0.253876	0.0328065	0.0547552	0.151078	-0.316462	0.935822	0.385058	0.690821	0	0	0.198869	-0.188153	0.232702	0.246508	1.5708	0	0
0.17	2.86342	1.46117	-1.20476	0.751073	-0.152909	0.93824	0.264509	0.0341826	-0.369654	0.118133	0.018516	0	0	-0.393902	0.00925756	-0.269909	0.0860922	0.203051	0	0	-0.246206	0.0290039	0.036358	0.14531	-0.317618	0.941599	0.389206	0.688859	0	0	0.187743	-0.192463	0.235352	0.255021	1.5708	0	0
0.18	2.78667	1.45435	-1.11937	0.750832	-0.143533	0.938893	0.23785	0.0535097	-0.358811	0.0852462	-0.00312586	0	0	-0.394578	-0.0107123	-0.27672	0.109128	0.206059	0	0	-0.25137	0.0454685	0.0290997	0.147388	-0.321627	0.942338	0.390706	0.688002	0	0	0.185491	-0.1898	0.234188	0.257319	1.5708	0	0
0.19	2.83822	1.45547	-1.15554	0.749937	-0.131361	0.937692	0.241496	0.0427042	-0.358347	0.116623	0.00914376	0	0	-0.397371	-0.0157622	-0.273967	0.129608	0.209362	0	0	-0.24543	0.0442953	0.0126683	0.138749	-0.322375	0.941299	0.394308	0.68797	0	0	0.175785	-0.191857	0.232604	0.25967	1.5708	0	0
0.2	2.81746	1.4556	-1.12588	0.749708	-0.120109	0.9372	0.233211	0.0473396	-0.353842	0.112647	-0.020679	0	0	-0.393721	-0.0280361	-0.277992	0.155278	0.212187	0	0	-0.240498	0.051162	0.00398313	0.133008	-0.324795	0.940101	0.397186	0.688287	0	0	0.168027	-0.191006	0.229813	0.262299	1.5708	0	0
0.21	2.77934	1.45475	-1.08051	0.749933	-0.108576	0.93686	0.21725	0.0580052	-0.340204	0.0931772	-0.0645793	0	0	-0.387705	-0.0438306	-0.285206	0.18611	0.21467	0	0	-0.235132	0.0596101	-0.00218253	0.126285	-0.326781	0.938086	0.399774	0.68923	0	0	0.160458	-0.189946	0.226341	0.26377	1.5708	0	0
0.22	2.74334	1.45414	-1.04001	0.750346	-0.0967659	0.936537	0.211351	0.0638531	-0.346178	0.0969268	-0.0883053	0	0	-0.380034	-0.0592443	-0.293996	0.22062	0.213813	0	0	-0.228838	0.0673831	-0.00552782	0.118651	-0.329038	0.935038	0.402215	0.690976	0	0	0.152623	-0.188242	0.222494	0.264909	1.5708	0	0
0.23	2.69634	1.45322	-0.991784	0.751073	-0.0847792	0.936349	0.20894	0.0694404	-0.356005	0.109907	-0.0965626	0	0	-0.370147	-0.075998	-0.304585	0.258719	0.209986	0	0	-0.221596	0.075965	-0.00518944	0.110336	-0.331647	0.931293	0.40449	0.693205	0	0	0.144675	-0.185734	0.218425	0.265766	1.5708	0	0
